PathFileType	4	(X/Y/Z)	TVC_39_Cal_03_0_static_RCNL2025.trc
DataRate	CameraRate	NumFrames	NumMarkers	Units	OrigDataRate	OrigDataStartFrame	OrigNumFrames
100	100	10	27	mm	100	147	292
Frame#	Time	R_Shoulder			L_Shoulder			C7			J_Notch			R_Elbow			L_Elbow			R_Wrist			L_Wrist			R_Asis			L_Asis			R_Psis			L_Psis			Sacral			Thoracic			Sternum			R_Thigh_Lateral			R_Knee_Lateral			R_Shank_Lateral			R_Ankle_Lateral			R_Heel			R_Toe			L_Thigh_Lateral			L_Knee_Lateral			L_Shank_Lateral			L_Ankle_Lateral			L_Heel			L_Toe		
		X1	Y1	Z1	X2	Y2	Z2	X3	Y3	Z3	X4	Y4	Z4	X5	Y5	Z5	X6	Y6	Z6	X7	Y7	Z7	X8	Y8	Z8	X9	Y9	Z9	X10	Y10	Z10	X11	Y11	Z11	X12	Y12	Z12	X13	Y13	Z13	X14	Y14	Z14	X15	Y15	Z15	X16	Y16	Z16	X17	Y17	Z17	X18	Y18	Z18	X19	Y19	Z19	X20	Y20	Z20	X21	Y21	Z21	X22	Y22	Z22	X23	Y23	Z23	X24	Y24	Z24	X25	Y25	Z25	X26	Y26	Z26	X27	Y27	Z27
147	1.46000000	-203.050446	1478.705200	3.468992	-173.633682	1471.121826	-382.074677	-238.480499	1553.234131	-199.575806	-96.671005	1420.682983	-189.591644	-172.373413	1142.735107	88.617111	-183.917969	1157.353027	-489.887787	-102.255154	906.491302	17.903593	-156.165573	898.190063	-501.547287	-167.363358	940.974670	-32.215065	-126.619606	941.542358	-324.609161	-352.282196	986.182251	-146.446838	-337.472961	981.477905	-253.212296	-344.877579	983.830078	-199.829567	-337.928436	1226.344238	-205.207657	-60.047455	1260.696777	-170.127380	-229.642548	747.062927	41.452442	-226.446732	459.442505	-14.673185	-269.045959	304.349426	35.015633	-270.842377	77.707550	-58.386673	-311.765656	60.064922	-112.486397	-123.918648	46.868248	-49.458008	-202.273224	699.968262	-409.369720	-231.278229	473.914459	-349.061188	-248.521469	342.185944	-390.155579	-261.353180	75.560265	-299.755310	-299.235870	57.797203	-238.637177	-117.311577	43.231743	-319.563599
148	1.47000000	-203.222275	1478.680420	3.199411	-173.681686	1471.093506	-382.180267	-238.612610	1553.231323	-199.734512	-96.757324	1420.631836	-189.728882	-172.378830	1142.494629	88.262878	-183.878586	1157.231201	-489.992035	-102.456627	906.441254	17.852912	-156.191177	898.171051	-501.608475	-167.397980	941.068054	-32.321995	-126.577599	941.664551	-325.121399	-352.318146	986.140137	-146.550507	-337.519958	981.473206	-253.322937	-344.919052	983.806671	-199.936722	-338.052399	1226.280396	-205.335831	-60.133362	1260.632568	-170.276627	-229.624664	747.046387	41.303463	-226.315536	459.425018	-14.710039	-268.570740	303.945343	34.959221	-270.942413	77.742828	-58.386620	-311.764648	60.081131	-112.435135	-123.910439	46.871658	-49.472668	-202.348770	699.851868	-409.567963	-231.201965	473.857147	-349.063507	-248.648605	342.318512	-390.617310	-261.357819	75.538269	-299.795074	-299.244812	57.734711	-238.618713	-117.284821	43.264591	-319.549652
149	1.48000000	-203.393448	1478.745483	3.237749	-173.599182	1471.077148	-382.230927	-238.709961	1553.236694	-199.850311	-96.878777	1420.617432	-189.784225	-172.594650	1142.754639	88.274010	-183.845459	1157.281616	-490.071289	-102.610954	906.408539	17.740372	-156.102295	898.125732	-501.679108	-167.422729	941.062744	-32.434090	-126.577492	941.634399	-325.233704	-352.354126	986.116455	-146.670792	-337.490845	981.393188	-253.466812	-344.922485	983.754822	-200.068802	-338.101227	1226.334351	-205.458679	-60.241409	1260.646851	-170.385712	-229.667999	747.008057	41.214512	-226.211670	459.416199	-14.730474	-268.293610	303.940033	34.880348	-270.870117	77.739449	-58.416805	-311.727081	60.139042	-112.530487	-123.873138	46.972088	-49.448177	-202.342438	699.923523	-409.640656	-231.248291	473.870026	-349.222168	-248.594131	342.162140	-390.368866	-261.297272	75.608604	-299.848663	-299.175110	57.767902	-238.668167	-117.284927	43.264435	-319.543915
150	1.49000000	-203.489685	1478.771362	3.054328	-173.616867	1471.092285	-382.308960	-238.822922	1553.175903	-199.986557	-96.898964	1420.625488	-189.778656	-172.849136	1142.794067	88.240982	-183.855621	1157.131348	-490.148224	-102.811138	906.413391	17.706468	-156.113052	898.128632	-501.705170	-167.478363	940.956238	-32.623161	-126.682404	941.539795	-325.213226	-352.376404	985.973572	-146.921600	-337.598541	981.415710	-253.553162	-344.987473	983.694641	-200.237381	-338.174133	1226.235229	-205.657196	-60.168800	1260.692139	-170.529755	-229.655716	747.058838	41.059303	-226.092239	459.464233	-14.776152	-268.223602	303.967621	34.810860	-270.872040	77.722664	-58.389282	-311.766479	60.082321	-112.555939	-123.955109	46.903431	-49.400352	-202.438644	699.864563	-409.710999	-231.240326	473.826477	-349.249329	-248.709106	342.320038	-390.883301	-261.294586	75.549843	-299.810974	-299.202057	57.859051	-238.672455	-117.278854	43.228779	-319.520874
151	1.50000000	-203.542145	1478.775635	2.913626	-173.670532	1471.029175	-382.442688	-238.852997	1553.184082	-200.210892	-96.951637	1420.704346	-189.919037	-173.036697	1142.743652	88.097076	-183.871582	1157.143677	-490.431610	-102.985355	906.412170	17.719192	-156.051102	898.066132	-501.833710	-167.571915	941.022461	-32.716461	-126.699295	941.590759	-325.312378	-352.431732	985.894836	-147.012131	-337.671722	981.453125	-253.693695	-345.051727	983.673981	-200.352913	-338.229187	1226.206055	-205.750763	-60.205460	1260.725952	-170.655502	-229.700150	747.212524	41.003036	-225.984207	459.433472	-14.861139	-268.183868	304.010986	34.769821	-270.811066	77.791748	-58.453770	-311.716919	60.137203	-112.506416	-123.839172	46.951759	-49.504402	-202.500977	699.796814	-409.853882	-231.279495	473.774506	-349.355408	-248.742935	342.290833	-391.035034	-261.376099	75.574005	-299.863922	-299.235321	57.885311	-238.645050	-117.286263	43.258121	-319.540863
152	1.51000000	-203.452225	1478.691284	2.808502	-173.641541	1471.063110	-382.525879	-238.941406	1553.225586	-200.403839	-97.013046	1420.700073	-190.027985	-173.218613	1142.762207	87.945122	-183.801712	1157.183838	-490.401001	-103.168953	906.372955	17.758441	-155.972839	898.090668	-501.881607	-167.600082	941.011414	-32.864262	-126.773727	941.577637	-325.445892	-352.493317	985.992371	-147.121964	-337.645569	981.403320	-253.742661	-345.069443	983.697845	-200.432312	-338.280548	1226.298950	-205.839996	-60.327648	1260.680298	-171.084381	-229.645370	747.219055	40.823231	-225.834076	459.372437	-14.958905	-268.134277	304.096039	34.763519	-270.790222	77.877769	-58.440022	-311.736237	60.163654	-112.530571	-123.806801	46.960125	-49.504162	-202.518265	699.854614	-409.885986	-231.283234	473.800995	-349.505554	-248.810623	342.294647	-391.084900	-261.298828	75.502739	-299.929535	-299.208038	57.846371	-238.679749	-117.279419	43.230194	-319.522583
153	1.52000000	-203.524445	1478.650269	2.623812	-173.602234	1471.045288	-382.582947	-238.983322	1553.199097	-200.518982	-97.135872	1420.694214	-190.063507	-173.139771	1142.574707	87.702553	-183.738480	1157.180786	-490.405243	-103.345665	906.305359	17.695580	-155.944099	898.095551	-501.994370	-167.595291	940.860718	-33.150795	-126.798264	941.531616	-325.526611	-352.627502	986.052856	-147.146393	-337.609009	981.382263	-253.862717	-345.118256	983.717560	-200.504555	-338.373566	1226.234497	-206.026917	-60.270405	1260.749634	-170.999039	-229.602097	747.231628	40.789062	-225.761734	459.373352	-14.965551	-267.977448	304.079437	34.746925	-270.873871	77.811836	-58.415001	-311.685150	60.226082	-112.515984	-123.732307	46.910851	-49.526306	-202.646545	699.684326	-410.147400	-231.292831	473.779663	-349.599854	-248.798660	342.252838	-391.163086	-261.309814	75.574753	-299.944427	-299.168030	57.695881	-238.744965	-117.268692	43.162487	-319.594635
154	1.53000000	-203.575943	1478.675293	2.476630	-173.644653	1471.068237	-382.670807	-239.091049	1553.155029	-200.640381	-97.192772	1420.754395	-190.193771	-173.364182	1142.741333	87.792816	-183.768631	1157.093872	-490.628357	-103.444443	906.524323	17.326016	-155.880508	898.027283	-501.981506	-167.664536	940.836365	-33.383297	-126.869965	941.507080	-325.612518	-352.767517	986.067688	-147.299622	-337.709839	981.317566	-253.902115	-345.238678	983.692627	-200.600868	-338.410736	1226.280029	-206.116699	-60.328854	1260.762573	-171.049698	-229.591461	747.081909	40.661896	-225.752441	459.335419	-15.025951	-267.862823	304.164764	34.568722	-270.836761	77.873238	-58.476185	-311.697144	60.207703	-112.534691	-123.833458	46.913761	-49.490891	-202.731125	699.761230	-410.281860	-231.344849	473.750397	-349.703156	-248.952148	342.231415	-391.191162	-261.316132	75.547722	-299.929962	-299.273712	57.807495	-238.714478	-117.308189	43.254219	-319.590973
155	1.54000000	-203.720352	1478.638306	2.450965	-173.621658	1471.089844	-382.831940	-239.115738	1553.133423	-200.750366	-97.202148	1420.735352	-190.244904	-173.532959	1142.772095	87.602562	-183.704407	1157.084473	-490.770325	-103.653889	906.639465	17.305827	-155.704414	898.040527	-502.141724	-167.787872	940.845764	-33.409737	-126.956314	941.525574	-325.726288	-352.851929	986.088867	-147.385208	-337.851318	981.390747	-254.058685	-345.351624	983.739807	-200.721947	-338.455750	1226.249512	-206.246109	-60.382648	1260.824463	-171.207657	-229.620377	747.057922	40.517204	-225.649872	459.252930	-15.093533	-267.643707	304.166718	34.503113	-270.776031	77.840630	-58.398495	-311.750702	60.200649	-112.520782	-123.905342	46.941444	-49.473587	-202.833954	699.611084	-410.413879	-231.367874	473.683990	-349.762970	-249.042007	342.291840	-391.295929	-261.347626	75.510422	-299.924286	-299.278198	57.869797	-238.751572	-117.392906	43.138645	-319.573883
156	1.55000000	-204.074600	1478.914307	2.252797	-173.664505	1471.034180	-383.042358	-239.184509	1553.182983	-200.978714	-97.236961	1420.774902	-190.315842	-173.738327	1142.762329	87.574196	-183.597565	1157.155762	-490.618469	-104.070648	906.262848	17.442941	-155.673042	898.052429	-502.270111	-167.802719	940.821838	-33.547863	-127.050079	941.464661	-325.887329	-352.960144	986.112427	-147.420914	-337.847137	981.390198	-254.099167	-345.403641	983.751312	-200.760040	-338.548706	1226.212402	-206.413162	-60.402012	1260.757080	-171.222824	-229.649124	747.040344	40.398315	-225.564865	459.193146	-15.184354	-267.541138	304.232605	34.420181	-270.847168	77.920998	-58.361790	-311.710815	60.260719	-112.528870	-123.867821	46.926430	-49.496582	-202.946442	699.546143	-410.514923	-231.440414	473.703125	-349.869812	-249.189697	342.177399	-391.641663	-261.328766	75.478218	-299.967499	-299.245453	57.748569	-238.808228	-117.390274	43.137436	-319.571472
